#!OML:ASF H:\ColoradoDance\Project 1\Capture day 1\Session 8\male.ASF
:FULLY-SPECIFIED
:DEGREES
122
upperback -2.528060 -1.857920 2.827730
rfoot -9.247070 -43.039101
lradius 27.004499
lthumb 7.517220 52.915199
rradius 33.196800
lwrist -16.226801
rhand -10.307700 20.716801
rhumerus -43.623798 -8.481960 -52.726898
lowerneck -4.307350 7.995930 9.791650
lhand -18.780300 23.068800
ltibia 29.462799
head 4.635860 5.263170 -3.190830
rwrist 7.438370
lfingers 7.125020
rtoes 24.799101
lowerback 3.013060 -1.581510 3.414950
rfingers 7.125020
lclavicle 0.000000 -0.000000
upperneck 10.043800 10.695900 -7.318510
rfemur -39.612099 13.815500 -3.835990
thorax -4.318190 -0.992193 1.135510
rclavicle 0.000000 -0.000000
rtibia 28.475300
lfoot -22.010201 11.517600
lhumerus -7.521670 -9.537180 58.586700
rthumb 15.687300 -368.666992
root 10.239800 19.703501 -29.611000 1106.569946 -34.668999 -14.297800
ltoes 0.745088
lfemur -22.828800 5.353630 -16.010099
123
upperback -3.331190 -0.047471 4.330620
rfoot -38.913799 -28.520399
lradius 27.890600
lthumb 2.394390 47.319199
rradius 27.800699
lwrist -15.898400
rhand -12.884500 7.653680
rhumerus -42.958500 -8.374530 -45.603802
lowerneck -3.328390 10.274600 12.665900
lhand -24.085899 17.352900
ltibia 29.646500
head 5.519200 6.888720 -4.553240
rwrist 5.120210
lfingers 7.125020
rtoes 51.008701
lowerback 2.382060 -0.400628 8.500210
rfingers 7.125020
lclavicle -0.000000 0.000000
upperneck 10.838300 14.173900 -11.251500
rfemur -8.381250 11.781800 -7.984580
thorax -4.827900 -0.284263 -0.237012
rclavicle -0.000000 0.000000
rtibia 23.238001
lfoot -21.768299 18.083099
lhumerus -19.016001 -12.241900 57.983799
rthumb 13.204500 -381.907990
root 12.095400 19.637600 -29.513599 1117.739990 -49.889099 -25.731400
ltoes 9.208920
lfemur -28.047899 11.535400 -19.413799
124
upperback -3.339880 3.991080 2.159220
rfoot 25.499500 -10.868300
lradius 22.096500
lthumb -6.538320 42.156200
rradius 34.518398
lwrist -18.872299
rhand -34.195202 -0.711588
rhumerus -32.569199 -1.245280 -58.531601
lowerneck -4.960610 7.537280 9.346300
lhand -33.335701 12.277100
ltibia 35.360500
head 5.193420 4.916950 -2.577770
rwrist 6.101740
lfingers 7.125020
rtoes 22.534800
lowerback 2.748900 2.705490 6.410310
rfingers 7.125020
lclavicle -0.000000 0.000000
upperneck 12.089500 9.883030 -5.505490
rfemur 5.206250 -10.099500 8.677540
thorax -4.733850 1.772660 -1.598980
rclavicle -0.000000 0.000000
rtibia 32.003899
lfoot -24.548000 24.307199
lhumerus -39.935299 -5.226140 52.768902
rthumb -7.367970 -390.562988
root 13.771600 19.219299 -29.539700 1132.640015 -64.582397 -40.183399
ltoes 16.894800
lfemur -37.541500 17.034201 -25.765699
125
upperback -3.023350 7.251550 -0.663070
rfoot -6.949950 6.685590
lradius 19.055000
lthumb -3.981710 53.595798
rradius 46.743698
lwrist -22.403000
rhand -31.268400 1.167320
rhumerus -22.026100 4.458870 -65.049599
lowerneck -8.380770 3.024180 5.905600
lhand -30.687799 23.653299
ltibia 33.166199
head 5.949700 1.821860 -1.865230
rwrist 2.904730
lfingers 7.125020
rtoes -16.926100
lowerback 3.526210 5.240510 4.831210
rfingers 7.125020
lclavicle -0.000000 0.000000
upperneck 14.505200 3.733040 -3.726430
rfemur 4.584310 -6.705620 30.800100
thorax -4.425310 3.432230 -3.858390
rclavicle -0.000000 0.000000
rtibia 27.093100
lfoot -14.146700 23.072100
lhumerus -58.136398 4.313780 53.989101
rthumb -4.542270 -388.764008
root 16.439400 18.664301 -29.030399 1152.420044 -77.901001 -58.793201
ltoes 20.352200
lfemur -45.823601 14.864300 -35.820900
126
upperback -1.759830 4.244880 0.030486
rfoot -31.559999 -15.470300
lradius 22.057301
lthumb -1.323020 59.485500
rradius 52.102001
lwrist -21.729500
rhand -30.100500 -18.957300
rhumerus -29.748501 -1.118050 -61.899200
lowerneck -8.379450 2.382650 6.755430
lhand -27.934900 29.509899
ltibia 53.567001
head 5.744150 1.358350 -3.742030
rwrist 10.520100
lfingers 7.125020
rtoes -23.426800
lowerback 5.572390 2.792320 7.054080
rfingers 7.125020
lclavicle 0.000000 0.000000
upperneck 13.578100 3.493440 -9.114380
rfemur -12.291700 -11.048300 25.701200
thorax -4.456420 1.899440 -4.296000
rclavicle 0.000000 0.000000
rtibia 41.327000
lfoot -8.913720 -4.852870
lhumerus -59.361198 4.677700 65.027100
rthumb -3.414540 -408.910004
root 19.876301 18.255100 -27.898800 1167.010010 -85.602203 -73.248596
ltoes -14.089700
lfemur -55.890400 7.082440 -26.231100
127
upperback -2.434420 1.214830 0.279950
rfoot -33.505402 -18.504900
lradius 28.063299
lthumb 4.440840 53.980099
rradius 28.841101
lwrist -12.167400
rhand -14.192400 16.954399
rhumerus -52.925598 -10.971300 -56.729801
lowerneck -7.931520 3.758460 5.436540
lhand -21.966801 24.046700
ltibia 57.739101
head 5.667160 2.298520 -2.713920
rwrist 27.476700
lfingers 7.125020
rtoes -19.533800
lowerback 2.609030 0.779999 4.071060
rfingers 7.125020
lclavicle -0.000000 -0.000000
upperneck 13.382400 5.246220 -7.009720
rfemur -21.420700 -5.658810 19.810400
thorax -3.899000 0.486303 -2.063650
rclavicle -0.000000 -0.000000
rtibia 48.397800
lfoot -19.437901 14.563600
lhumerus -50.157902 0.279959 56.892601
rthumb 11.943600 -372.684998
root 21.348101 18.090599 -26.715799 1242.459961 -85.135399 -148.565994
ltoes -2.763110
lfemur -25.950500 -0.997784 -0.456994
128
upperback -2.488880 -2.414810 0.674581
rfoot -26.039200 -25.701000
lradius 42.017799
lthumb 0.360235 49.143200
rradius 15.416800
lwrist -9.091010
rhand -28.412201 -4.901830
rhumerus -71.186699 -16.559500 -47.773201
lowerneck -7.359600 0.882070 3.025940
lhand -26.192101 19.163700
ltibia 29.941099
head 5.085140 0.440986 -2.250060
rwrist 23.142599
lfingers 7.125020
rtoes -17.098400
lowerback 0.949393 -1.830970 1.243140
rfingers 7.125020
lclavicle 0.000000 -0.000000
upperneck 12.692600 1.489890 -5.932210
rfemur -21.059700 -0.787475 6.863440
thorax -3.109650 -1.234580 0.086035
rclavicle 0.000000 -0.000000
rtibia 52.944901
lfoot -25.954201 1.160090
lhumerus -39.492802 -8.514570 67.580101
rthumb -1.784030 -394.873993
root 21.681000 18.329599 -24.446199 1418.079956 -83.559303 -325.575989
ltoes -17.077999
lfemur -11.266500 -0.249873 -10.633700
129
upperback -2.336530 -2.630230 1.630090
rfoot -11.894100 -13.677400
lradius 47.380001
lthumb 7.850940 52.526901
rradius 29.676201
lwrist -6.797630
rhand -37.623299 7.353950
rhumerus -59.471100 -13.726300 -73.687202
lowerneck -5.805290 -0.099723 4.010920
lhand -18.434500 22.692699
ltibia 22.194300
head 4.146270 -0.156525 -1.728280
rwrist 9.966320
lfingers 7.125020
rtoes -12.380900
lowerback 1.686170 -1.979120 -0.454268
rfingers 7.125020
lclavicle 0.000000 -0.000000
upperneck 9.442690 -0.285088 -2.950620
rfemur -46.725101 -3.320580 11.089800
thorax -3.249130 -1.288060 2.047590
rclavicle 0.000000 -0.000000
rtibia 66.087097
lfoot -25.225201 7.554600
lhumerus -34.547600 -3.710420 74.823502
rthumb -10.675900 -382.355011
root 21.372400 18.792000 -22.606600 1445.800049 -85.124702 -353.243988
ltoes -11.000000
lfemur -5.719130 -6.867570 -14.366400
